<svg viewBox="0 0 22 22" fill="none" xmlns="http://www.w3.org/2000/svg">
<g clip-path="url(#clip0_2024_1735)">
<path d="M11 22C17.0751 22 22 17.0751 22 11C22 4.92487 17.0751 0 11 0C4.92487 0 0 4.92487 0 11C0 17.0751 4.92487 22 11 22Z" fill="white"/>
<path d="M5.42698 11.3696L5.4745 11.295L8.33582 6.81846C8.34533 6.80364 8.35867 6.79165 8.37443 6.78377C8.39019 6.77589 8.40778 6.77241 8.42535 6.7737C8.44292 6.77498 8.45982 6.78098 8.47426 6.79107C8.48871 6.80116 8.50016 6.81495 8.50742 6.831C8.98548 7.9024 9.39798 9.23472 9.20482 10.0643C9.12232 10.4056 8.89638 10.8678 8.64206 11.295C8.60906 11.3573 8.57298 11.4182 8.5347 11.477C8.52573 11.4903 8.5136 11.5012 8.4994 11.5087C8.48519 11.5161 8.46936 11.52 8.4533 11.5199H5.51058C5.43138 11.5199 5.38518 11.4341 5.42698 11.3696Z" fill="#2081E2"/>
<path d="M18.1817 12.2018V12.9102C18.1817 12.9511 18.1568 12.9872 18.1207 13.0031C17.8992 13.0981 17.1409 13.4461 16.8256 13.8846C16.0208 15.0044 15.4062 16.606 14.0318 16.606H8.29862C6.2667 16.606 4.62 14.9538 4.62 12.9148V12.8495C4.62 12.7952 4.664 12.7512 4.71834 12.7512H7.9145C7.97764 12.7512 8.02406 12.8099 8.01834 12.8722C7.99583 13.0834 8.03552 13.2967 8.13252 13.4857C8.22544 13.6737 8.36909 13.832 8.54721 13.9426C8.72534 14.0532 8.93086 14.1119 9.14056 14.1119H10.7228V12.8766H9.1586C9.14028 12.8763 9.12238 12.8711 9.10681 12.8615C9.09124 12.8518 9.07859 12.8381 9.07022 12.8219C9.06185 12.8056 9.05807 12.7873 9.0593 12.769C9.06053 12.7508 9.06672 12.7332 9.0772 12.7182C9.09436 12.6922 9.1135 12.6654 9.13374 12.6346C9.33782 12.3408 9.52797 12.0376 9.70354 11.726C9.84698 11.4752 9.98602 11.2072 10.0978 10.9384C10.1204 10.8897 10.1385 10.84 10.1565 10.7914C10.1871 10.7056 10.2188 10.6253 10.2414 10.545C10.2639 10.4772 10.2821 10.406 10.3002 10.3393C10.3532 10.1109 10.3759 9.86915 10.3759 9.61835C10.3759 9.52001 10.3715 9.41705 10.3622 9.31871C10.3578 9.21135 10.3442 9.10399 10.3305 8.99663C10.32 8.90034 10.3054 8.80455 10.2865 8.70953C10.263 8.56509 10.2329 8.4218 10.1963 8.28009L10.1838 8.22597C10.1565 8.12763 10.1341 8.03391 10.1024 7.93557C10.0149 7.63455 9.91459 7.33743 9.80166 7.04501C9.76206 6.93303 9.71696 6.82567 9.67186 6.71831C9.6052 6.55661 9.53722 6.40987 9.47518 6.27083C9.4435 6.20747 9.41644 6.14983 9.38938 6.09109C9.35919 6.025 9.32788 5.95943 9.29544 5.89441C9.27278 5.84601 9.24682 5.80069 9.22878 5.75537L9.0354 5.39831C9.02934 5.38751 9.0266 5.37515 9.02753 5.3628C9.02847 5.35045 9.03302 5.33865 9.04064 5.32887C9.04825 5.3191 9.05857 5.31179 9.07032 5.30786C9.08207 5.30393 9.09472 5.30356 9.10668 5.30679L10.316 5.63459H10.3193C10.3215 5.63459 10.3228 5.63569 10.3237 5.63569L10.4832 5.67969L10.6583 5.72941L10.7228 5.74745V5.02871C10.7228 4.68177 11.0009 4.40039 11.3443 4.40039C11.5161 4.40039 11.6721 4.47035 11.7841 4.58453C11.8958 4.69893 11.966 4.85469 11.966 5.02893V6.09571L12.0947 6.13179C12.1053 6.13509 12.1152 6.14007 12.1242 6.14653C12.1559 6.17029 12.2012 6.20527 12.2586 6.24817C12.3039 6.28425 12.3526 6.32847 12.4113 6.37357C12.5277 6.46751 12.6665 6.58829 12.8192 6.72733C12.8599 6.76253 12.8995 6.79861 12.9358 6.83469C13.1548 7.03627 13.364 7.24822 13.5628 7.46983C13.6217 7.53649 13.6794 7.60425 13.7381 7.67553C13.7969 7.74791 13.8591 7.81897 13.9132 7.89025C13.9845 7.98529 14.0613 8.08363 14.128 8.18637C14.1596 8.23499 14.1957 8.28471 14.2263 8.33333C14.3121 8.46313 14.3878 8.59777 14.4602 8.73219C14.4907 8.79445 14.5224 8.86221 14.5495 8.92887C14.6298 9.10861 14.6929 9.29187 14.7336 9.47469C14.7462 9.51429 14.7552 9.55719 14.7596 9.59569V9.60471C14.7732 9.65905 14.7778 9.71669 14.7822 9.77543C14.801 9.96389 14.7903 10.1541 14.7506 10.3393C14.7331 10.4193 14.7108 10.4982 14.6839 10.5756C14.6568 10.6526 14.6298 10.7327 14.5946 10.8083C14.5265 10.9685 14.4452 11.1227 14.3517 11.2695C14.3211 11.3236 14.285 11.3812 14.2487 11.4356C14.2091 11.4932 14.1687 11.5475 14.1324 11.6006C14.0826 11.6683 14.0296 11.7396 13.9753 11.803C13.9269 11.8696 13.8769 11.9363 13.8228 11.995C13.7502 12.0818 13.6756 12.1669 13.5991 12.2502C13.5538 12.3035 13.5051 12.3578 13.4554 12.4064C13.407 12.4605 13.3571 12.5092 13.312 12.5545C13.2363 12.6302 13.1729 12.6889 13.1199 12.7375L12.9956 12.8517C12.9771 12.8678 12.9534 12.8766 12.929 12.8766H11.9658V14.1119H13.1773C13.4476 14.1117 13.7089 14.0151 13.9141 13.8393C13.9854 13.7772 14.296 13.5082 14.6634 13.1025C14.6757 13.0888 14.6918 13.079 14.7096 13.0743L18.0561 12.1068C18.0707 12.1027 18.0862 12.102 18.1011 12.1049C18.1161 12.1077 18.1302 12.114 18.1423 12.1232C18.1545 12.1324 18.1643 12.1443 18.1711 12.1579C18.1779 12.1715 18.1817 12.1866 18.1817 12.2018Z" fill="#2081E2"/>
</g>
<defs>
<clipPath id="clip0_2024_1735">
<rect width="22" height="22" fill="white"/>
</clipPath>
</defs>
</svg>
