<svg  viewBox="0 0 21 18" fill="none" xmlns="http://www.w3.org/2000/svg">
<path d="M18.8262 4.35938C18.8262 4.56445 18.8262 4.72852 18.8262 4.93359C18.8262 10.6348 14.5195 17.1562 6.60352 17.1562C4.14258 17.1562 1.88672 16.459 0 15.2285C0.328125 15.2695 0.65625 15.3105 1.02539 15.3105C3.03516 15.3105 4.88086 14.6133 6.35742 13.4648C4.4707 13.4238 2.87109 12.1934 2.33789 10.4707C2.625 10.5117 2.87109 10.5527 3.1582 10.5527C3.52734 10.5527 3.9375 10.4707 4.26562 10.3887C2.29688 9.97852 0.820312 8.25586 0.820312 6.16406V6.12305C1.39453 6.45117 2.0918 6.61523 2.78906 6.65625C1.59961 5.87695 0.861328 4.56445 0.861328 3.08789C0.861328 2.26758 1.06641 1.5293 1.43555 0.914062C3.56836 3.49805 6.76758 5.2207 10.3359 5.42578C10.2539 5.09766 10.2129 4.76953 10.2129 4.44141C10.2129 2.0625 12.1406 0.134766 14.5195 0.134766C15.75 0.134766 16.8574 0.626953 17.6777 1.48828C18.6211 1.2832 19.5645 0.914062 20.3848 0.421875C20.0566 1.44727 19.4004 2.26758 18.498 2.80078C19.3594 2.71875 20.2207 2.47266 20.959 2.14453C20.3848 3.00586 19.6465 3.74414 18.8262 4.35938Z" fill="#393939"/>
</svg>
