<svg viewBox="0 0 28 25" fill="none" xmlns="http://www.w3.org/2000/svg">
<path d="M25.2109 5.5C26.7422 5.5 28 6.70312 28 8.125V22.125C28 23.6016 26.7422 24.75 25.2109 24.75H3.5C1.53125 24.75 0 23.2188 0 21.25V3.75C0 1.83594 1.53125 0.25 3.5 0.25H23.625C25.0469 0.25 26.25 1.45312 26.25 2.875C26.25 3.36719 25.8125 3.75 25.375 3.75H4.375C3.88281 3.75 3.5 4.1875 3.5 4.625C3.5 5.11719 3.88281 5.5 4.375 5.5H25.2109ZM22.75 16.875C23.6797 16.875 24.5 16.1094 24.5 15.125C24.5 14.1953 23.6797 13.375 22.75 13.375C21.7656 13.375 21 14.1953 21 15.125C21 16.1094 21.7656 16.875 22.75 16.875Z" fill="black"/>
</svg>
